<svg aria-hidden="true" style="position: absolute; width: 0; height: 0; overflow: hidden;" version="1.1" xmlns="http://www.w3.org/2000/svg" xmlns:xlink="http://www.w3.org/1999/xlink">
<defs>
<symbol id="icon-basket" viewBox="0 0 32 32">
<path fill="#f9f0e5" style="fill: var(--color1, #f9f0e5)" d="M32 16c0 8.837-7.163 16-16 16s-16-7.163-16-16c0-8.837 7.163-16 16-16s16 7.163 16 16z"></path>
<path fill="#01005b" style="fill: var(--color2, #01005b)" d="M11.713 11.603c0-0.239 0.199-0.432 0.445-0.432h10.402c0.13 0 0.253 0.055 0.337 0.15s0.122 0.222 0.102 0.347l-0.444 2.831c-0.034 0.214-0.223 0.367-0.439 0.367-0.022 0-0.045-0.002-0.068-0.005-0.243-0.036-0.41-0.256-0.373-0.492l0.366-2.334h-9.884c-0.246 0-0.445-0.194-0.445-0.432zM15.091 18.971h-3.943l-1.644-9.321c-0.037-0.207-0.222-0.359-0.439-0.359h-2.427c-0.246 0-0.445 0.193-0.445 0.432s0.199 0.432 0.445 0.432h2.052l1.644 9.321c0.037 0.211 0.225 0.359 0.438 0.359 0.025-0 0.050-0.002 0.076-0.006 0.002-0 0.004-0.001 0.005-0.001 0.026 0.005 0.053 0.007 0.081 0.007h4.157c0.246 0 0.445-0.193 0.445-0.432s-0.199-0.432-0.445-0.432zM14.231 22.029v0.767c0 0.721-0.604 1.307-1.346 1.307s-1.346-0.587-1.346-1.307v-0.767c0-0.721 0.604-1.307 1.346-1.307s1.346 0.586 1.346 1.307zM13.341 22.029c0-0.244-0.205-0.443-0.456-0.443h-0c-0.251 0-0.456 0.199-0.456 0.443v0.767c0 0.244 0.205 0.443 0.456 0.443s0.456-0.199 0.456-0.443v-0.767zM25.745 17.998c-0.262 2.049-1.331 3.876-3.008 5.144-1.412 1.067-3.112 1.632-4.873 1.632-0.331 0-0.665-0.020-0.999-0.061-0.28-0.034-0.561-0.083-0.838-0.146-0.186-0.042-0.323-0.194-0.342-0.379-0.058-0.57-0.050-1.149 0.023-1.72 0.542-4.23 4.526-7.242 8.88-6.716 0.28 0.034 0.562 0.083 0.838 0.146 0.186 0.042 0.323 0.194 0.341 0.378 0.058 0.57 0.050 1.149-0.023 1.72zM24.907 16.677c-0.142-0.026-0.286-0.048-0.428-0.065-3.867-0.468-7.405 2.208-7.887 5.965-0.027 0.214-0.044 0.43-0.051 0.645l4.070-3.464c0.185-0.157 0.466-0.139 0.628 0.040s0.143 0.453-0.041 0.61l-4.071 3.465c1.822 0.183 3.614-0.316 5.064-1.412 1.49-1.127 2.439-2.749 2.672-4.569 0.052-0.403 0.067-0.81 0.045-1.214z"></path>
</symbol>
<symbol id="icon-moon" viewBox="0 0 32 32">
<path fill="#f9f0e5" style="fill: var(--color1, #f9f0e5)" d="M32 16c0 8.837-7.163 16-16 16s-16-7.163-16-16c0-8.837 7.163-16 16-16s16 7.163 16 16z"></path>
<path fill="none" stroke="#15005b" style="stroke: var(--color3, #15005b)" stroke-linejoin="round" stroke-linecap="round" stroke-miterlimit="10" stroke-width="1.1355" d="M16 5.677v21.161"></path>
<path fill="none" stroke="#15005b" style="stroke: var(--color3, #15005b)" stroke-linejoin="round" stroke-linecap="round" stroke-miterlimit="10" stroke-width="1.1355" d="M16 21.956c-3.15 0-5.697-2.547-5.697-5.697s2.547-5.697 5.697-5.697"></path>
<path fill="none" stroke="#15005b" style="stroke: var(--color3, #15005b)" stroke-linejoin="round" stroke-linecap="round" stroke-miterlimit="10" stroke-width="1.1355" d="M8.52 8.779l1.725 1.725"></path>
<path fill="none" stroke="#15005b" style="stroke: var(--color3, #15005b)" stroke-linejoin="round" stroke-linecap="round" stroke-miterlimit="10" stroke-width="1.1355" d="M5.419 16.258h2.442"></path>
<path fill="none" stroke="#15005b" style="stroke: var(--color3, #15005b)" stroke-linejoin="round" stroke-linecap="round" stroke-miterlimit="10" stroke-width="1.1355" d="M8.52 23.738l1.725-1.725"></path>
<path fill="none" stroke="#15005b" style="stroke: var(--color3, #15005b)" stroke-linejoin="round" stroke-linecap="round" stroke-miterlimit="10" stroke-width="1.1355" d="M16 13.45c0.977-1.725 2.832-2.889 4.957-2.889 0.13 0 0.252 0.008 0.383 0.016-1.359 0.716-2.279 2.141-2.279 3.777 0 2.36 1.913 4.273 4.273 4.273 1.302 0 2.466-0.586 3.247-1.506-0.423 2.743-2.775 4.834-5.624 4.834-2.124 0-3.98-1.164-4.957-2.889"></path>
</symbol>
<symbol id="icon-wave" viewBox="0 0 32 32">
<path fill="#f9f0e5" style="fill: var(--color1, #f9f0e5)" d="M32 16c0 8.837-7.163 16-16 16s-16-7.163-16-16c0-8.837 7.163-16 16-16s16 7.163 16 16z"></path>
<path fill="#01005b" style="fill: var(--color2, #01005b)" d="M9.578 12.697c1.403-1.36 2.51-2.435 5.517-0.517 1.444 0.921 2.609 1.269 3.578 1.268 1.698 0 2.799-1.066 3.75-1.988 0.163-0.16 0.265-0.386 0.283-0.63s-0.048-0.486-0.185-0.675c-0.067-0.093-0.15-0.17-0.243-0.226s-0.196-0.091-0.302-0.101-0.212 0.003-0.313 0.040c-0.101 0.037-0.194 0.096-0.274 0.174-1.402 1.362-2.51 2.437-5.517 0.517-3.973-2.532-5.834-0.728-7.328 0.723-0.163 0.161-0.265 0.387-0.283 0.63s0.048 0.485 0.186 0.675c0.067 0.093 0.15 0.169 0.243 0.225s0.196 0.090 0.302 0.101c0.105 0.010 0.212-0.003 0.312-0.040s0.194-0.096 0.274-0.174zM21.389 14.672c-1.402 1.36-2.51 2.437-5.517 0.517-3.973-2.534-5.834-0.729-7.328 0.721-0.163 0.161-0.265 0.387-0.283 0.63s0.048 0.486 0.186 0.675c0.067 0.093 0.149 0.17 0.243 0.226s0.196 0.090 0.302 0.101c0.105 0.011 0.212-0.003 0.313-0.039s0.194-0.096 0.274-0.174c1.403-1.361 2.51-2.436 5.517-0.519 1.444 0.923 2.609 1.269 3.578 1.269 1.698 0 2.799-1.066 3.75-1.99 0.163-0.16 0.265-0.386 0.283-0.629s-0.048-0.485-0.185-0.674c-0.067-0.093-0.15-0.17-0.243-0.226s-0.196-0.090-0.302-0.101c-0.106-0.010-0.212 0.003-0.313 0.040s-0.194 0.096-0.274 0.174zM21.389 19.301c-1.402 1.362-2.51 2.437-5.517 0.519-3.973-2.534-5.834-0.73-7.328 0.721-0.163 0.161-0.265 0.386-0.283 0.63s0.048 0.485 0.186 0.675c0.067 0.093 0.149 0.169 0.243 0.226s0.196 0.090 0.302 0.101 0.212-0.003 0.313-0.040c0.101-0.037 0.194-0.096 0.274-0.174 1.403-1.36 2.51-2.434 5.517-0.517 1.444 0.921 2.609 1.269 3.578 1.269 1.698 0 2.799-1.068 3.75-1.99 0.163-0.16 0.265-0.386 0.283-0.63s-0.048-0.486-0.185-0.675c-0.067-0.093-0.15-0.169-0.243-0.225s-0.196-0.090-0.302-0.101c-0.105-0.011-0.212 0.003-0.313 0.039s-0.194 0.096-0.275 0.174z"></path>
</symbol>
<symbol id="icon-arrow" viewBox="0 0 74 32">
<path d="M57.943 32l15.657-16-15.657-16-4.704 4.807 7.627 7.794h-60.866v6.798h60.866l-7.627 7.794 4.704 4.807z"></path>
</symbol>
<symbol id="icon-stars" viewBox="0 0 192 32">
<path d="M32.429 11.775c-0.055-0.169-0.156-0.319-0.292-0.434s-0.301-0.189-0.477-0.214l-10.067-1.463-4.503-9.131c-0.079-0.159-0.2-0.293-0.351-0.387s-0.325-0.143-0.502-0.143c-0.177 0-0.351 0.050-0.502 0.143s-0.272 0.228-0.351 0.387l-4.503 9.124-10.067 1.463c-0.175 0.026-0.34 0.1-0.476 0.214s-0.236 0.264-0.291 0.433c-0.055 0.169-0.061 0.349-0.019 0.522s0.132 0.329 0.259 0.453l7.284 7.101-1.719 10.028c-0.029 0.174-0.009 0.353 0.058 0.516s0.178 0.305 0.32 0.409c0.143 0.104 0.311 0.166 0.487 0.18s0.352-0.022 0.509-0.103l9.012-4.729 9.005 4.734c0.157 0.081 0.334 0.116 0.51 0.103s0.345-0.076 0.488-0.18 0.254-0.246 0.32-0.41c0.067-0.164 0.087-0.343 0.057-0.517l-1.719-10.028 7.286-7.101c0.127-0.123 0.217-0.279 0.26-0.451s0.037-0.352-0.016-0.52z"></path>
<path d="M72.31 11.773c-0.055-0.169-0.156-0.319-0.292-0.434s-0.301-0.189-0.477-0.214l-10.067-1.463-4.503-9.131c-0.079-0.159-0.2-0.293-0.351-0.387s-0.325-0.143-0.502-0.143c-0.177 0-0.351 0.050-0.502 0.143s-0.272 0.228-0.351 0.387l-4.503 9.124-10.067 1.463c-0.175 0.026-0.34 0.1-0.476 0.214s-0.236 0.264-0.291 0.433c-0.055 0.169-0.061 0.349-0.019 0.522s0.132 0.329 0.259 0.453l7.284 7.101-1.719 10.028c-0.029 0.174-0.009 0.353 0.058 0.516s0.178 0.305 0.32 0.409c0.143 0.104 0.311 0.166 0.487 0.18s0.352-0.022 0.509-0.103l9.012-4.729 9.005 4.734c0.157 0.081 0.333 0.116 0.51 0.103s0.345-0.076 0.488-0.18c0.142-0.104 0.253-0.246 0.32-0.41s0.087-0.343 0.058-0.517l-1.719-10.028 7.286-7.101c0.127-0.123 0.217-0.279 0.26-0.451s0.037-0.352-0.016-0.52z"></path>
<path d="M112.192 11.772c-0.055-0.169-0.156-0.319-0.292-0.434s-0.301-0.189-0.477-0.214l-10.067-1.463-4.503-9.131c-0.079-0.159-0.2-0.293-0.351-0.387s-0.325-0.143-0.502-0.143c-0.177 0-0.351 0.050-0.502 0.143s-0.272 0.228-0.351 0.387l-4.503 9.124-10.067 1.463c-0.176 0.026-0.34 0.1-0.476 0.215s-0.236 0.264-0.291 0.433c-0.055 0.169-0.062 0.349-0.019 0.522s0.132 0.329 0.259 0.453l7.284 7.101-1.719 10.028c-0.029 0.174-0.009 0.353 0.058 0.516s0.178 0.305 0.32 0.409c0.143 0.104 0.311 0.166 0.487 0.18s0.352-0.022 0.509-0.103l9.012-4.729 9.005 4.734c0.157 0.081 0.333 0.116 0.509 0.103s0.345-0.076 0.488-0.18c0.143-0.104 0.254-0.246 0.32-0.41s0.087-0.343 0.058-0.517l-1.719-10.028 7.286-7.101c0.127-0.123 0.217-0.279 0.26-0.451s0.037-0.352-0.016-0.52z"></path>
<path d="M152.074 11.772c-0.055-0.169-0.156-0.319-0.292-0.434s-0.301-0.189-0.477-0.214l-10.067-1.463-4.503-9.131c-0.079-0.159-0.201-0.293-0.351-0.387s-0.325-0.143-0.502-0.143c-0.178 0-0.352 0.050-0.502 0.143s-0.272 0.228-0.351 0.387l-4.503 9.124-10.067 1.463c-0.175 0.026-0.34 0.1-0.476 0.215s-0.236 0.264-0.291 0.433c-0.055 0.169-0.061 0.349-0.019 0.522s0.132 0.329 0.259 0.453l7.284 7.101-1.719 10.028c-0.029 0.174-0.009 0.353 0.058 0.516s0.178 0.305 0.32 0.409c0.143 0.104 0.311 0.166 0.487 0.18s0.352-0.022 0.509-0.103l9.012-4.729 9.005 4.734c0.157 0.081 0.333 0.116 0.51 0.103s0.345-0.076 0.488-0.18c0.143-0.104 0.253-0.246 0.32-0.41s0.086-0.343 0.057-0.517l-1.719-10.028 7.286-7.101c0.127-0.123 0.217-0.279 0.26-0.451s0.037-0.352-0.016-0.52z"></path>
<path d="M191.954 11.772c-0.055-0.169-0.156-0.319-0.292-0.434s-0.301-0.189-0.477-0.214l-10.067-1.463-4.503-9.131c-0.079-0.159-0.2-0.293-0.351-0.387s-0.325-0.143-0.502-0.143c-0.177 0-0.351 0.050-0.502 0.143s-0.272 0.228-0.351 0.387l-4.503 9.124-10.067 1.463c-0.176 0.026-0.34 0.1-0.476 0.215s-0.236 0.264-0.291 0.433c-0.055 0.169-0.062 0.349-0.020 0.522s0.132 0.329 0.259 0.453l7.284 7.101-1.719 10.028c-0.029 0.174-0.009 0.353 0.058 0.516s0.178 0.305 0.32 0.409c0.143 0.104 0.311 0.166 0.487 0.18s0.352-0.022 0.509-0.103l9.012-4.729 9.005 4.734c0.157 0.081 0.333 0.116 0.51 0.103s0.345-0.076 0.488-0.18c0.142-0.104 0.253-0.246 0.32-0.41s0.087-0.343 0.058-0.517l-1.719-10.028 7.286-7.101c0.127-0.123 0.217-0.279 0.26-0.451s0.037-0.352-0.016-0.52z"></path>
</symbol>
</defs>
</svg>
